<mxfile host="app.diagrams.net" modified="2023-12-03T04:22:10.774Z" agent="Mozilla/5.0 (Windows NT 10.0; Win64; x64) AppleWebKit/537.36 (KHTML, like Gecko) Chrome/119.0.0.0 Safari/537.36" etag="LnGgOkX7fKEfTf3xvO4Y" version="22.1.5" type="github" pages="3">
  <diagram name="Page-1" id="197159a0-c6a4-9194-75a8-e4174976684c">
    <mxGraphModel dx="1114" dy="709" grid="0" gridSize="10" guides="1" tooltips="1" connect="1" arrows="1" fold="1" page="1" pageScale="1.5" pageWidth="1169" pageHeight="826" background="none" math="0" shadow="0">
      <root>
        <mxCell id="0" style=";html=1;" />
        <mxCell id="1" style=";html=1;" parent="0" />
        <mxCell id="-atGY7Fb6HlqmJsTW_YP-7" value="" style="rounded=0;whiteSpace=wrap;html=1;dashed=1;dashPattern=8 8;" parent="1" vertex="1">
          <mxGeometry x="199" y="324" width="829" height="382" as="geometry" />
        </mxCell>
        <mxCell id="OvXPD-LgLy1YMoip5yQz-47" value="" style="rounded=0;whiteSpace=wrap;html=1;dashed=1;" parent="1" vertex="1">
          <mxGeometry x="1108" y="198" width="192" height="135" as="geometry" />
        </mxCell>
        <mxCell id="OvXPD-LgLy1YMoip5yQz-46" value="" style="rounded=0;whiteSpace=wrap;html=1;dashed=1;" parent="1" vertex="1">
          <mxGeometry x="1108" y="444" width="192" height="135" as="geometry" />
        </mxCell>
        <mxCell id="OvXPD-LgLy1YMoip5yQz-22" value="" style="rounded=0;whiteSpace=wrap;html=1;dashed=1;" parent="1" vertex="1">
          <mxGeometry x="716" y="435" width="240" height="200" as="geometry" />
        </mxCell>
        <mxCell id="OvXPD-LgLy1YMoip5yQz-21" value="" style="rounded=0;whiteSpace=wrap;html=1;dashed=1;" parent="1" vertex="1">
          <mxGeometry x="396" y="435" width="240" height="200" as="geometry" />
        </mxCell>
        <mxCell id="OvXPD-LgLy1YMoip5yQz-10" value="数据存储服务器" style="sketch=0;shadow=0;dashed=0;html=1;strokeColor=none;fillColor=#505050;labelPosition=center;verticalLabelPosition=bottom;verticalAlign=top;outlineConnect=0;align=center;shape=mxgraph.office.databases.database_server;" parent="1" vertex="1">
          <mxGeometry x="874.5" y="534" width="43" height="57" as="geometry" />
        </mxCell>
        <mxCell id="OvXPD-LgLy1YMoip5yQz-14" value="数据运算服务器" style="sketch=0;pointerEvents=1;shadow=0;dashed=0;html=1;strokeColor=none;fillColor=#505050;labelPosition=center;verticalLabelPosition=bottom;verticalAlign=top;outlineConnect=0;align=center;shape=mxgraph.office.servers.active_directory_federation_services_server_blue;" parent="1" vertex="1">
          <mxGeometry x="499" y="445" width="45" height="56" as="geometry" />
        </mxCell>
        <mxCell id="OvXPD-LgLy1YMoip5yQz-15" value="数据运算服务器" style="sketch=0;pointerEvents=1;shadow=0;dashed=0;html=1;strokeColor=none;fillColor=#505050;labelPosition=center;verticalLabelPosition=bottom;verticalAlign=top;outlineConnect=0;align=center;shape=mxgraph.office.servers.active_directory_federation_services_server_blue;" parent="1" vertex="1">
          <mxGeometry x="546" y="535" width="45" height="56" as="geometry" />
        </mxCell>
        <mxCell id="OvXPD-LgLy1YMoip5yQz-16" value="数据运算服务器" style="sketch=0;pointerEvents=1;shadow=0;dashed=0;html=1;strokeColor=none;fillColor=#505050;labelPosition=center;verticalLabelPosition=bottom;verticalAlign=top;outlineConnect=0;align=center;shape=mxgraph.office.servers.active_directory_federation_services_server_blue;" parent="1" vertex="1">
          <mxGeometry x="446" y="535" width="45" height="56" as="geometry" />
        </mxCell>
        <mxCell id="OvXPD-LgLy1YMoip5yQz-17" value="数据存储服务器" style="sketch=0;shadow=0;dashed=0;html=1;strokeColor=none;fillColor=#505050;labelPosition=center;verticalLabelPosition=bottom;verticalAlign=top;outlineConnect=0;align=center;shape=mxgraph.office.databases.database_server;" parent="1" vertex="1">
          <mxGeometry x="767.5" y="534" width="43" height="57" as="geometry" />
        </mxCell>
        <mxCell id="OvXPD-LgLy1YMoip5yQz-18" value="数据存储服务器" style="sketch=0;shadow=0;dashed=0;html=1;strokeColor=none;fillColor=#505050;labelPosition=center;verticalLabelPosition=bottom;verticalAlign=top;outlineConnect=0;align=center;shape=mxgraph.office.databases.database_server;" parent="1" vertex="1">
          <mxGeometry x="818.5" y="444" width="43" height="57" as="geometry" />
        </mxCell>
        <mxCell id="OvXPD-LgLy1YMoip5yQz-23" value="网关服务器" style="sketch=0;pointerEvents=1;shadow=0;dashed=0;html=1;strokeColor=none;fillColor=#505050;labelPosition=center;verticalLabelPosition=bottom;verticalAlign=top;outlineConnect=0;align=center;shape=mxgraph.office.servers.server_generic;" parent="1" vertex="1">
          <mxGeometry x="237" y="496" width="41.5" height="65" as="geometry" />
        </mxCell>
        <mxCell id="OvXPD-LgLy1YMoip5yQz-31" value="" style="shape=flexArrow;endArrow=classic;startArrow=classic;html=1;rounded=0;fillColor=#dae8fc;strokeColor=#6c8ebf;" parent="1" edge="1">
          <mxGeometry width="100" height="100" relative="1" as="geometry">
            <mxPoint x="636" y="535" as="sourcePoint" />
            <mxPoint x="716" y="535" as="targetPoint" />
          </mxGeometry>
        </mxCell>
        <mxCell id="OvXPD-LgLy1YMoip5yQz-33" value="" style="shape=flexArrow;endArrow=classic;startArrow=classic;html=1;rounded=0;fillColor=#dae8fc;strokeColor=#6c8ebf;" parent="1" edge="1">
          <mxGeometry width="100" height="100" relative="1" as="geometry">
            <mxPoint x="378" y="535" as="sourcePoint" />
            <mxPoint x="305.42857142857156" y="535" as="targetPoint" />
          </mxGeometry>
        </mxCell>
        <mxCell id="OvXPD-LgLy1YMoip5yQz-36" value="数据运算服务器集群" style="text;html=1;strokeColor=none;fillColor=none;align=center;verticalAlign=middle;whiteSpace=wrap;rounded=0;" parent="1" vertex="1">
          <mxGeometry x="461" y="635" width="110" height="30" as="geometry" />
        </mxCell>
        <mxCell id="OvXPD-LgLy1YMoip5yQz-37" value="数据存储服务器集群" style="text;html=1;strokeColor=none;fillColor=none;align=center;verticalAlign=middle;whiteSpace=wrap;rounded=0;" parent="1" vertex="1">
          <mxGeometry x="781" y="635" width="110" height="30" as="geometry" />
        </mxCell>
        <mxCell id="OvXPD-LgLy1YMoip5yQz-40" value="&lt;p class=&quot;MsoNormal&quot;&gt;&lt;font style=&quot;font-size: 24px;&quot;&gt;地球物理台网数据管理系统&lt;/font&gt;&lt;/p&gt;" style="text;html=1;strokeColor=none;fillColor=none;align=center;verticalAlign=middle;whiteSpace=wrap;rounded=0;fontStyle=1" parent="1" vertex="1">
          <mxGeometry x="433" y="354" width="353" height="30" as="geometry" />
        </mxCell>
        <mxCell id="OvXPD-LgLy1YMoip5yQz-42" value="数据运算服务器" style="sketch=0;pointerEvents=1;shadow=0;dashed=0;html=1;strokeColor=none;fillColor=#505050;labelPosition=center;verticalLabelPosition=bottom;verticalAlign=top;outlineConnect=0;align=center;shape=mxgraph.office.servers.server_generic;" parent="1" vertex="1">
          <mxGeometry x="1190.5" y="239.5" width="27" height="52" as="geometry" />
        </mxCell>
        <mxCell id="OvXPD-LgLy1YMoip5yQz-43" value="&lt;p class=&quot;MsoNormal&quot;&gt;&lt;font size=&quot;1&quot; style=&quot;&quot;&gt;&lt;b style=&quot;font-size: 24px;&quot;&gt;地球物理台网数据跟踪分析系统&lt;/b&gt;&lt;/font&gt;&lt;/p&gt;" style="text;whiteSpace=wrap;html=1;align=center;" parent="1" vertex="1">
          <mxGeometry x="1092" y="325.5" width="224" height="63.5" as="geometry" />
        </mxCell>
        <mxCell id="OvXPD-LgLy1YMoip5yQz-44" value="&lt;h1 style=&quot;border-color: var(--border-color); color: rgb(0, 0, 0); font-style: normal; font-variant-ligatures: normal; font-variant-caps: normal; letter-spacing: normal; orphans: 2; text-align: center; text-indent: 0px; text-transform: none; widows: 2; word-spacing: 0px; -webkit-text-stroke-width: 0px; background-color: rgb(251, 251, 251); text-decoration-thickness: initial; text-decoration-style: initial; text-decoration-color: initial;&quot;&gt;&lt;span style=&quot;border-color: var(--border-color);&quot;&gt;&lt;span style=&quot;border-color: var(--border-color);&quot;&gt;&lt;font face=&quot;Helvetica&quot; style=&quot;border-color: var(--border-color); font-size: 24px;&quot;&gt;地球物理台网数据处理系统&lt;/font&gt;&lt;/span&gt;&lt;/span&gt;&lt;/h1&gt;" style="text;whiteSpace=wrap;html=1;" parent="1" vertex="1">
          <mxGeometry x="1104" y="561" width="196" height="83" as="geometry" />
        </mxCell>
        <mxCell id="OvXPD-LgLy1YMoip5yQz-45" value="数据运算服务器" style="sketch=0;pointerEvents=1;shadow=0;dashed=0;html=1;strokeColor=none;fillColor=#505050;labelPosition=center;verticalLabelPosition=bottom;verticalAlign=top;outlineConnect=0;align=center;shape=mxgraph.office.servers.server_generic;" parent="1" vertex="1">
          <mxGeometry x="1190.5" y="485.5" width="27" height="52" as="geometry" />
        </mxCell>
        <mxCell id="-atGY7Fb6HlqmJsTW_YP-1" value="" style="rounded=0;whiteSpace=wrap;html=1;dashed=1;" parent="1" vertex="1">
          <mxGeometry x="1108" y="667" width="192" height="135" as="geometry" />
        </mxCell>
        <mxCell id="-atGY7Fb6HlqmJsTW_YP-2" value="&lt;h1 style=&quot;border-color: var(--border-color); color: rgb(0, 0, 0); font-family: Helvetica; font-style: normal; font-variant-ligatures: normal; font-variant-caps: normal; letter-spacing: normal; orphans: 2; text-align: center; text-indent: 0px; text-transform: none; widows: 2; word-spacing: 0px; -webkit-text-stroke-width: 0px; background-color: rgb(251, 251, 251); text-decoration-thickness: initial; text-decoration-style: initial; text-decoration-color: initial;&quot;&gt;&lt;p class=&quot;MsoNormal&quot;&gt;学科产品产出服务系统&lt;/p&gt;&lt;/h1&gt;" style="text;whiteSpace=wrap;html=1;" parent="1" vertex="1">
          <mxGeometry x="1104" y="784" width="196" height="83" as="geometry" />
        </mxCell>
        <mxCell id="-atGY7Fb6HlqmJsTW_YP-3" value="数据运算服务器" style="sketch=0;pointerEvents=1;shadow=0;dashed=0;html=1;strokeColor=none;fillColor=#505050;labelPosition=center;verticalLabelPosition=bottom;verticalAlign=top;outlineConnect=0;align=center;shape=mxgraph.office.servers.server_generic;" parent="1" vertex="1">
          <mxGeometry x="1190.5" y="708.5" width="27" height="52" as="geometry" />
        </mxCell>
        <mxCell id="-atGY7Fb6HlqmJsTW_YP-4" value="" style="shape=flexArrow;endArrow=classic;startArrow=classic;html=1;rounded=0;fillColor=#f8cecc;strokeColor=#b85450;" parent="1" edge="1">
          <mxGeometry width="100" height="100" relative="1" as="geometry">
            <mxPoint x="975" y="422" as="sourcePoint" />
            <mxPoint x="1075" y="322" as="targetPoint" />
          </mxGeometry>
        </mxCell>
        <mxCell id="-atGY7Fb6HlqmJsTW_YP-5" value="" style="shape=flexArrow;endArrow=classic;startArrow=classic;html=1;rounded=0;fillColor=#f8cecc;strokeColor=#b85450;" parent="1" edge="1">
          <mxGeometry width="100" height="100" relative="1" as="geometry">
            <mxPoint x="960" y="534" as="sourcePoint" />
            <mxPoint x="1091" y="534" as="targetPoint" />
          </mxGeometry>
        </mxCell>
        <mxCell id="-atGY7Fb6HlqmJsTW_YP-6" value="" style="shape=flexArrow;endArrow=classic;startArrow=classic;html=1;rounded=0;fillColor=#f8cecc;strokeColor=#b85450;" parent="1" edge="1">
          <mxGeometry width="100" height="100" relative="1" as="geometry">
            <mxPoint x="1070" y="728" as="sourcePoint" />
            <mxPoint x="970" y="628" as="targetPoint" />
          </mxGeometry>
        </mxCell>
      </root>
    </mxGraphModel>
  </diagram>
  <diagram id="-R49sftn46QtKF7uovSq" name="第 2 页">
    <mxGraphModel dx="-420" dy="496" grid="0" gridSize="10" guides="1" tooltips="1" connect="1" arrows="1" fold="1" page="1" pageScale="1" pageWidth="1200" pageHeight="1920" math="0" shadow="0">
      <root>
        <mxCell id="0" />
        <mxCell id="1" parent="0" />
        <mxCell id="VECzNdqrlb_GyDMpjDza-1" value="" style="rounded=0;whiteSpace=wrap;html=1;dashed=1;" parent="1" vertex="1">
          <mxGeometry x="1278" y="311" width="228" height="99" as="geometry" />
        </mxCell>
        <mxCell id="VECzNdqrlb_GyDMpjDza-2" value="(主)数据运算服务器" style="sketch=0;pointerEvents=1;shadow=0;dashed=0;html=1;strokeColor=none;fillColor=#505050;labelPosition=center;verticalLabelPosition=bottom;verticalAlign=top;outlineConnect=0;align=center;shape=mxgraph.office.servers.active_directory_federation_services_server_blue;" parent="1" vertex="1">
          <mxGeometry x="1319" y="323" width="45" height="56" as="geometry" />
        </mxCell>
        <mxCell id="VECzNdqrlb_GyDMpjDza-3" value="(备)数据运算服务器" style="sketch=0;pointerEvents=1;shadow=0;dashed=0;html=1;strokeColor=none;fillColor=#505050;labelPosition=center;verticalLabelPosition=bottom;verticalAlign=top;outlineConnect=0;align=center;shape=mxgraph.office.servers.active_directory_federation_services_server_blue;" parent="1" vertex="1">
          <mxGeometry x="1429" y="323" width="45" height="56" as="geometry" />
        </mxCell>
        <mxCell id="VECzNdqrlb_GyDMpjDza-4" value="数据运算服务器双机热备" style="text;html=1;strokeColor=none;fillColor=none;align=center;verticalAlign=middle;whiteSpace=wrap;rounded=0;" parent="1" vertex="1">
          <mxGeometry x="1335" y="407" width="139" height="30" as="geometry" />
        </mxCell>
        <mxCell id="VECzNdqrlb_GyDMpjDza-5" value="" style="rounded=0;whiteSpace=wrap;html=1;dashed=1;" parent="1" vertex="1">
          <mxGeometry x="1278" y="176" width="227" height="102" as="geometry" />
        </mxCell>
        <mxCell id="VECzNdqrlb_GyDMpjDza-6" value="(主)业务服务器" style="sketch=0;pointerEvents=1;shadow=0;dashed=0;html=1;strokeColor=none;fillColor=#505050;labelPosition=center;verticalLabelPosition=bottom;verticalAlign=top;outlineConnect=0;align=center;shape=mxgraph.office.security.trusted_application_server;" parent="1" vertex="1">
          <mxGeometry x="1318" y="188" width="46" height="57" as="geometry" />
        </mxCell>
        <mxCell id="VECzNdqrlb_GyDMpjDza-7" value="(备)业务服务器" style="sketch=0;pointerEvents=1;shadow=0;dashed=0;html=1;strokeColor=none;fillColor=#505050;labelPosition=center;verticalLabelPosition=bottom;verticalAlign=top;outlineConnect=0;align=center;shape=mxgraph.office.security.trusted_application_server;" parent="1" vertex="1">
          <mxGeometry x="1423" y="188" width="46" height="57" as="geometry" />
        </mxCell>
        <mxCell id="VECzNdqrlb_GyDMpjDza-8" value="业务服务器双机热备" style="text;html=1;strokeColor=none;fillColor=none;align=center;verticalAlign=middle;whiteSpace=wrap;rounded=0;" parent="1" vertex="1">
          <mxGeometry x="1322" y="275" width="139" height="30" as="geometry" />
        </mxCell>
        <mxCell id="VECzNdqrlb_GyDMpjDza-9" value="网关(负载均衡)服务器" style="sketch=0;pointerEvents=1;shadow=0;dashed=0;html=1;strokeColor=none;fillColor=#505050;labelPosition=center;verticalLabelPosition=bottom;verticalAlign=top;outlineConnect=0;align=center;shape=mxgraph.office.security.trusted_application_server;" parent="1" vertex="1">
          <mxGeometry x="1371" y="64" width="46" height="57" as="geometry" />
        </mxCell>
        <mxCell id="VECzNdqrlb_GyDMpjDza-10" value="&lt;span style=&quot;color: rgb(0, 0, 0); font-family: 宋体; font-size: 28px; font-style: normal; font-variant-ligatures: normal; font-variant-caps: normal; font-weight: 700; letter-spacing: normal; orphans: 2; text-align: left; text-indent: 0px; text-transform: none; widows: 2; word-spacing: 0px; -webkit-text-stroke-width: 0px; background-color: rgb(251, 251, 251); text-decoration-thickness: initial; text-decoration-style: initial; text-decoration-color: initial; float: none; display: inline !important;&quot;&gt;云南预报综合业务服务系统&lt;/span&gt;" style="text;whiteSpace=wrap;html=1;" parent="1" vertex="1">
          <mxGeometry x="1222.995263157895" y="424.00052631578956" width="371" height="56" as="geometry" />
        </mxCell>
        <mxCell id="VECzNdqrlb_GyDMpjDza-11" value="" style="shape=flexArrow;endArrow=classic;startArrow=classic;html=1;rounded=0;fillColor=#dae8fc;strokeColor=#6c8ebf;" parent="1" edge="1">
          <mxGeometry width="100" height="100" relative="1" as="geometry">
            <mxPoint x="1326" y="185" as="sourcePoint" />
            <mxPoint x="1367" y="143" as="targetPoint" />
          </mxGeometry>
        </mxCell>
        <mxCell id="VECzNdqrlb_GyDMpjDza-12" value="" style="shape=flexArrow;endArrow=classic;startArrow=classic;html=1;rounded=0;fillColor=#dae8fc;strokeColor=#6c8ebf;" parent="1" edge="1">
          <mxGeometry width="100" height="100" relative="1" as="geometry">
            <mxPoint x="1399.000000000001" y="143" as="sourcePoint" />
            <mxPoint x="1440.000000000001" y="185" as="targetPoint" />
          </mxGeometry>
        </mxCell>
        <mxCell id="VECzNdqrlb_GyDMpjDza-13" value="" style="shape=flexArrow;endArrow=classic;startArrow=classic;html=1;rounded=0;width=9.56521739130435;startSize=5.191304347826087;fillColor=#dae8fc;strokeColor=#6c8ebf;" parent="1" edge="1">
          <mxGeometry width="100" height="100" relative="1" as="geometry">
            <mxPoint x="1332" y="326" as="sourcePoint" />
            <mxPoint x="1332" y="263" as="targetPoint" />
            <Array as="points">
              <mxPoint x="1332" y="293" />
            </Array>
          </mxGeometry>
        </mxCell>
        <mxCell id="VECzNdqrlb_GyDMpjDza-14" value="" style="shape=flexArrow;endArrow=classic;startArrow=classic;html=1;rounded=0;width=9.56521739130435;startSize=5.191304347826087;fillColor=#dae8fc;strokeColor=#6c8ebf;" parent="1" edge="1">
          <mxGeometry width="100" height="100" relative="1" as="geometry">
            <mxPoint x="1448" y="323" as="sourcePoint" />
            <mxPoint x="1448" y="260" as="targetPoint" />
            <Array as="points">
              <mxPoint x="1448" y="290" />
            </Array>
          </mxGeometry>
        </mxCell>
        <mxCell id="txeO43J3Ei8Qvxe_MB5s-5" value="" style="rounded=0;whiteSpace=wrap;html=1;dashed=1;" vertex="1" parent="1">
          <mxGeometry x="1710" y="173" width="227" height="110" as="geometry" />
        </mxCell>
        <mxCell id="txeO43J3Ei8Qvxe_MB5s-6" value="(主)业务服务器&lt;br&gt;(主)数据库服务器" style="sketch=0;pointerEvents=1;shadow=0;dashed=0;html=1;strokeColor=none;fillColor=#505050;labelPosition=center;verticalLabelPosition=bottom;verticalAlign=top;outlineConnect=0;align=center;shape=mxgraph.office.security.trusted_application_server;" vertex="1" parent="1">
          <mxGeometry x="1750" y="185" width="46" height="57" as="geometry" />
        </mxCell>
        <mxCell id="txeO43J3Ei8Qvxe_MB5s-7" value="(备)业务服务器&lt;br&gt;(备)数据库服务器" style="sketch=0;pointerEvents=1;shadow=0;dashed=0;html=1;strokeColor=none;fillColor=#505050;labelPosition=center;verticalLabelPosition=bottom;verticalAlign=top;outlineConnect=0;align=center;shape=mxgraph.office.security.trusted_application_server;" vertex="1" parent="1">
          <mxGeometry x="1855" y="185" width="46" height="57" as="geometry" />
        </mxCell>
        <mxCell id="txeO43J3Ei8Qvxe_MB5s-8" value="业务服务器双机热备" style="text;html=1;strokeColor=none;fillColor=none;align=center;verticalAlign=middle;whiteSpace=wrap;rounded=0;" vertex="1" parent="1">
          <mxGeometry x="1754" y="281" width="139" height="30" as="geometry" />
        </mxCell>
        <mxCell id="txeO43J3Ei8Qvxe_MB5s-9" value="网关(负载均衡)服务器" style="sketch=0;pointerEvents=1;shadow=0;dashed=0;html=1;strokeColor=none;fillColor=#505050;labelPosition=center;verticalLabelPosition=bottom;verticalAlign=top;outlineConnect=0;align=center;shape=mxgraph.office.security.trusted_application_server;" vertex="1" parent="1">
          <mxGeometry x="1803" y="61" width="46" height="57" as="geometry" />
        </mxCell>
        <mxCell id="txeO43J3Ei8Qvxe_MB5s-10" value="&lt;span style=&quot;color: rgb(0, 0, 0); font-family: 宋体; font-size: 28px; font-style: normal; font-variant-ligatures: normal; font-variant-caps: normal; font-weight: 700; letter-spacing: normal; orphans: 2; text-align: left; text-indent: 0px; text-transform: none; widows: 2; word-spacing: 0px; -webkit-text-stroke-width: 0px; background-color: rgb(251, 251, 251); text-decoration-thickness: initial; text-decoration-style: initial; text-decoration-color: initial; float: none; display: inline !important;&quot;&gt;云南预报综合业务服务系统&lt;/span&gt;" style="text;whiteSpace=wrap;html=1;" vertex="1" parent="1">
          <mxGeometry x="1640.495263157895" y="305.00052631578956" width="371" height="56" as="geometry" />
        </mxCell>
        <mxCell id="txeO43J3Ei8Qvxe_MB5s-11" value="" style="shape=flexArrow;endArrow=classic;startArrow=classic;html=1;rounded=0;fillColor=#dae8fc;strokeColor=#6c8ebf;" edge="1" parent="1">
          <mxGeometry width="100" height="100" relative="1" as="geometry">
            <mxPoint x="1758" y="182" as="sourcePoint" />
            <mxPoint x="1799" y="140" as="targetPoint" />
          </mxGeometry>
        </mxCell>
        <mxCell id="txeO43J3Ei8Qvxe_MB5s-12" value="" style="shape=flexArrow;endArrow=classic;startArrow=classic;html=1;rounded=0;fillColor=#dae8fc;strokeColor=#6c8ebf;" edge="1" parent="1">
          <mxGeometry width="100" height="100" relative="1" as="geometry">
            <mxPoint x="1831.000000000001" y="140" as="sourcePoint" />
            <mxPoint x="1872.000000000001" y="182" as="targetPoint" />
          </mxGeometry>
        </mxCell>
      </root>
    </mxGraphModel>
  </diagram>
  <diagram id="msTh6u1wWNHuVcgvZzll" name="第 3 页">
    <mxGraphModel dx="780" dy="496" grid="0" gridSize="10" guides="1" tooltips="1" connect="1" arrows="1" fold="1" page="1" pageScale="1" pageWidth="1200" pageHeight="1920" math="0" shadow="0">
      <root>
        <mxCell id="0" />
        <mxCell id="1" parent="0" />
        <mxCell id="HnytdFX3LsWHevzkO2Uy-1" value="&lt;b&gt;学科中心&lt;/b&gt;" style="ellipse;shape=cloud;whiteSpace=wrap;html=1;fillColor=#ffff88;strokeColor=#36393d;shadow=1;" vertex="1" parent="1">
          <mxGeometry x="445" y="90" width="120" height="80" as="geometry" />
        </mxCell>
        <mxCell id="HnytdFX3LsWHevzkO2Uy-3" value="&lt;b&gt;国家中心&lt;/b&gt;" style="ellipse;shape=cloud;whiteSpace=wrap;html=1;fillColor=#cce5ff;strokeColor=#36393d;shadow=1;" vertex="1" parent="1">
          <mxGeometry x="250" y="90" width="120" height="80" as="geometry" />
        </mxCell>
        <mxCell id="HnytdFX3LsWHevzkO2Uy-4" value="&lt;b&gt;省级业务中心&lt;/b&gt;" style="ellipse;shape=cloud;whiteSpace=wrap;html=1;fillColor=#d0cee2;strokeColor=#56517e;shadow=1;" vertex="1" parent="1">
          <mxGeometry x="50" y="140" width="120" height="80" as="geometry" />
        </mxCell>
        <mxCell id="HnytdFX3LsWHevzkO2Uy-5" value="&lt;b&gt;地球物理设备&lt;/b&gt;" style="image;html=1;image=img/lib/clip_art/networking/Print_Server_128x128.png" vertex="1" parent="1">
          <mxGeometry x="483" y="245" width="80" height="80" as="geometry" />
        </mxCell>
        <mxCell id="HnytdFX3LsWHevzkO2Uy-6" value="&lt;b&gt;监测中心站&lt;/b&gt;" style="ellipse;shape=cloud;whiteSpace=wrap;html=1;fillColor=#b1ddf0;strokeColor=#10739e;shadow=1;" vertex="1" parent="1">
          <mxGeometry x="250" y="257.5" width="120" height="80" as="geometry" />
        </mxCell>
        <mxCell id="HnytdFX3LsWHevzkO2Uy-8" value="" style="endArrow=classic;html=1;rounded=0;fillColor=#e51400;strokeColor=#FF3333;" edge="1" parent="1">
          <mxGeometry width="50" height="50" relative="1" as="geometry">
            <mxPoint x="473" y="295" as="sourcePoint" />
            <mxPoint x="363" y="294.5" as="targetPoint" />
          </mxGeometry>
        </mxCell>
        <mxCell id="HnytdFX3LsWHevzkO2Uy-9" value="&lt;font style=&quot;font-size: 10px;&quot;&gt;有线、无线、微波等链路&lt;/font&gt;" style="text;html=1;strokeColor=none;fillColor=none;align=center;verticalAlign=middle;whiteSpace=wrap;rounded=0;" vertex="1" parent="1">
          <mxGeometry x="344" y="265" width="150" height="30" as="geometry" />
        </mxCell>
        <mxCell id="HnytdFX3LsWHevzkO2Uy-10" value="&lt;span style=&quot;font-size: 10px;&quot;&gt;Wire/Wireless&lt;/span&gt;" style="text;html=1;strokeColor=none;fillColor=none;align=center;verticalAlign=middle;whiteSpace=wrap;rounded=0;" vertex="1" parent="1">
          <mxGeometry x="349" y="295" width="150" height="30" as="geometry" />
        </mxCell>
        <mxCell id="HnytdFX3LsWHevzkO2Uy-20" value="" style="curved=1;endArrow=classic;html=1;rounded=0;dashed=1;fillColor=#e51400;strokeColor=#FF3333;" edge="1" parent="1" source="HnytdFX3LsWHevzkO2Uy-4" target="HnytdFX3LsWHevzkO2Uy-3">
          <mxGeometry width="50" height="50" relative="1" as="geometry">
            <mxPoint x="150" y="140" as="sourcePoint" />
            <mxPoint x="250" y="80" as="targetPoint" />
            <Array as="points">
              <mxPoint x="150" y="90" />
            </Array>
          </mxGeometry>
        </mxCell>
        <mxCell id="HnytdFX3LsWHevzkO2Uy-21" value="&lt;font style=&quot;font-size: 9px;&quot;&gt;INTERNET&lt;/font&gt;" style="ellipse;shape=cloud;whiteSpace=wrap;html=1;align=center;fillColor=#dae8fc;gradientColor=#8599FF;strokeColor=#6c8ebf;gradientDirection=north;" vertex="1" parent="1">
          <mxGeometry x="150" y="80" width="60" height="40" as="geometry" />
        </mxCell>
        <mxCell id="HnytdFX3LsWHevzkO2Uy-23" value="" style="html=1;strokeWidth=1;shadow=0;dashed=0;shape=mxgraph.ios7.misc.vpn;fillColor=#007AFF;strokeColor=none;buttonText=;strokeColor2=#222222;fontColor=#222222;fontSize=8;verticalLabelPosition=bottom;verticalAlign=top;align=center;sketch=0;" vertex="1" parent="1">
          <mxGeometry x="215" y="92.5" width="15" height="15" as="geometry" />
        </mxCell>
        <mxCell id="HnytdFX3LsWHevzkO2Uy-24" value="" style="curved=1;endArrow=classic;html=1;rounded=0;fillColor=#e51400;strokeColor=#FF3333;dashed=1;" edge="1" parent="1" source="HnytdFX3LsWHevzkO2Uy-3">
          <mxGeometry width="50" height="50" relative="1" as="geometry">
            <mxPoint x="360" y="90" as="sourcePoint" />
            <mxPoint x="470" y="80" as="targetPoint" />
            <Array as="points">
              <mxPoint x="370" y="50" />
            </Array>
          </mxGeometry>
        </mxCell>
        <mxCell id="HnytdFX3LsWHevzkO2Uy-25" value="&lt;font style=&quot;font-size: 9px;&quot;&gt;INTERNET&lt;/font&gt;" style="ellipse;shape=cloud;whiteSpace=wrap;html=1;align=center;fillColor=#dae8fc;gradientColor=#8599FF;strokeColor=#6c8ebf;gradientDirection=north;" vertex="1" parent="1">
          <mxGeometry x="360" y="50" width="60" height="40" as="geometry" />
        </mxCell>
        <mxCell id="HnytdFX3LsWHevzkO2Uy-26" value="" style="html=1;strokeWidth=1;shadow=0;dashed=0;shape=mxgraph.ios7.misc.vpn;fillColor=#007AFF;strokeColor=none;buttonText=;strokeColor2=#222222;fontColor=#222222;fontSize=8;verticalLabelPosition=bottom;verticalAlign=top;align=center;sketch=0;" vertex="1" parent="1">
          <mxGeometry x="430" y="60" width="15" height="15" as="geometry" />
        </mxCell>
        <mxCell id="HnytdFX3LsWHevzkO2Uy-30" value="" style="endArrow=classic;html=1;rounded=0;fillColor=#e51400;strokeColor=#FF3333;" edge="1" parent="1" target="HnytdFX3LsWHevzkO2Uy-3">
          <mxGeometry width="50" height="50" relative="1" as="geometry">
            <mxPoint x="180" y="180" as="sourcePoint" />
            <mxPoint x="230" y="130" as="targetPoint" />
          </mxGeometry>
        </mxCell>
        <mxCell id="HnytdFX3LsWHevzkO2Uy-31" value="SDH" style="edgeLabel;html=1;align=center;verticalAlign=middle;resizable=0;points=[];" vertex="1" connectable="0" parent="HnytdFX3LsWHevzkO2Uy-30">
          <mxGeometry x="0.1534" y="-1" relative="1" as="geometry">
            <mxPoint x="-3" as="offset" />
          </mxGeometry>
        </mxCell>
        <mxCell id="HnytdFX3LsWHevzkO2Uy-32" value="" style="endArrow=classic;html=1;rounded=0;fillColor=#e51400;strokeColor=#FF3333;" edge="1" parent="1">
          <mxGeometry width="50" height="50" relative="1" as="geometry">
            <mxPoint x="380" y="130" as="sourcePoint" />
            <mxPoint x="450" y="129.5" as="targetPoint" />
          </mxGeometry>
        </mxCell>
        <mxCell id="HnytdFX3LsWHevzkO2Uy-33" value="SDH" style="edgeLabel;html=1;align=center;verticalAlign=middle;resizable=0;points=[];" vertex="1" connectable="0" parent="HnytdFX3LsWHevzkO2Uy-32">
          <mxGeometry x="-0.3571" relative="1" as="geometry">
            <mxPoint x="7" y="1" as="offset" />
          </mxGeometry>
        </mxCell>
        <mxCell id="HnytdFX3LsWHevzkO2Uy-34" value="" style="curved=1;endArrow=classic;html=1;rounded=0;entryX=0.25;entryY=0.875;entryDx=0;entryDy=0;entryPerimeter=0;fillColor=#e51400;strokeColor=#FF3333;dashed=1;exitX=0;exitY=0.5;exitDx=0;exitDy=0;" edge="1" parent="1" source="HnytdFX3LsWHevzkO2Uy-41" target="HnytdFX3LsWHevzkO2Uy-4">
          <mxGeometry width="50" height="50" relative="1" as="geometry">
            <mxPoint x="140" y="290" as="sourcePoint" />
            <mxPoint x="80" y="230" as="targetPoint" />
            <Array as="points">
              <mxPoint x="150" y="300" />
              <mxPoint x="110" y="280" />
              <mxPoint x="90" y="260" />
            </Array>
          </mxGeometry>
        </mxCell>
        <mxCell id="HnytdFX3LsWHevzkO2Uy-35" value="&lt;font style=&quot;font-size: 9px;&quot;&gt;INTERNET&lt;/font&gt;" style="ellipse;shape=cloud;whiteSpace=wrap;html=1;align=center;fillColor=#dae8fc;gradientColor=#8599FF;strokeColor=#6c8ebf;gradientDirection=north;" vertex="1" parent="1">
          <mxGeometry x="120" y="280" width="60" height="40" as="geometry" />
        </mxCell>
        <mxCell id="HnytdFX3LsWHevzkO2Uy-36" value="" style="html=1;strokeWidth=1;shadow=0;dashed=0;shape=mxgraph.ios7.misc.vpn;fillColor=#007AFF;strokeColor=none;buttonText=;strokeColor2=#222222;fontColor=#222222;fontSize=8;verticalLabelPosition=bottom;verticalAlign=top;align=center;sketch=0;" vertex="1" parent="1">
          <mxGeometry x="80" y="230" width="15" height="15" as="geometry" />
        </mxCell>
        <mxCell id="HnytdFX3LsWHevzkO2Uy-37" value="" style="endArrow=classic;html=1;rounded=0;fillColor=#e51400;strokeColor=#FF3333;" edge="1" parent="1">
          <mxGeometry width="50" height="50" relative="1" as="geometry">
            <mxPoint x="240" y="280" as="sourcePoint" />
            <mxPoint x="140" y="210" as="targetPoint" />
          </mxGeometry>
        </mxCell>
        <mxCell id="HnytdFX3LsWHevzkO2Uy-46" value="SDH" style="edgeLabel;html=1;align=center;verticalAlign=middle;resizable=0;points=[];" vertex="1" connectable="0" parent="HnytdFX3LsWHevzkO2Uy-37">
          <mxGeometry x="0.1181" relative="1" as="geometry">
            <mxPoint as="offset" />
          </mxGeometry>
        </mxCell>
        <mxCell id="HnytdFX3LsWHevzkO2Uy-39" value="&lt;font style=&quot;font-size: 10px;&quot;&gt;&lt;b&gt;Scientific Research Center&lt;/b&gt;&lt;/font&gt;" style="text;html=1;strokeColor=none;fillColor=none;align=center;verticalAlign=middle;whiteSpace=wrap;rounded=0;" vertex="1" parent="1">
          <mxGeometry x="420" y="130" width="175" height="30" as="geometry" />
        </mxCell>
        <mxCell id="HnytdFX3LsWHevzkO2Uy-40" value="National Network Center" style="text;whiteSpace=wrap;fontSize=10;fontStyle=1" vertex="1" parent="1">
          <mxGeometry x="260" y="130" width="120" height="40" as="geometry" />
        </mxCell>
        <mxCell id="HnytdFX3LsWHevzkO2Uy-41" value="&lt;font style=&quot;font-size: 10px;&quot;&gt;&lt;b&gt;Observation Center&lt;/b&gt;&lt;/font&gt;" style="text;html=1;strokeColor=none;fillColor=none;align=center;verticalAlign=middle;whiteSpace=wrap;rounded=0;" vertex="1" parent="1">
          <mxGeometry x="250" y="297.5" width="130" height="30" as="geometry" />
        </mxCell>
        <mxCell id="HnytdFX3LsWHevzkO2Uy-44" value="&lt;font style=&quot;font-size: 10px;&quot;&gt;&lt;b&gt;Observational INstruments&lt;/b&gt;&lt;/font&gt;" style="text;html=1;strokeColor=none;fillColor=none;align=center;verticalAlign=middle;whiteSpace=wrap;rounded=0;" vertex="1" parent="1">
          <mxGeometry x="445.5" y="340" width="155" height="30" as="geometry" />
        </mxCell>
        <mxCell id="HnytdFX3LsWHevzkO2Uy-45" value="&lt;font style=&quot;font-size: 10px;&quot;&gt;&lt;b&gt;Provincial Operations Centers&lt;/b&gt;&lt;/font&gt;" style="text;html=1;strokeColor=none;fillColor=none;align=center;verticalAlign=middle;whiteSpace=wrap;rounded=0;" vertex="1" parent="1">
          <mxGeometry x="25" y="180" width="170" height="30" as="geometry" />
        </mxCell>
      </root>
    </mxGraphModel>
  </diagram>
</mxfile>
